<?xml version="1.0" standalone="no"?>
<!DOCTYPE svg PUBLIC "-//W3C//DTD SVG 20010904//EN"
 "http://www.w3.org/TR/2001/REC-SVG-20010904/DTD/svg10.dtd">
<svg version="1.0" xmlns="http://www.w3.org/2000/svg"
 width="192.000000pt" height="192.000000pt" viewBox="0 0 192.000000 192.000000"
 preserveAspectRatio="xMidYMid meet">
<metadata>
Created by potrace 1.14, written by Peter Selinger 2001-2017
</metadata>
<g transform="translate(0.000000,192.000000) scale(0.100000,-0.100000)"
fill="#000000" stroke="none">
<path d="M250 1377 c-3 -3 -17 -8 -30 -10 -64 -10 -123 -54 -158 -118 -15 -27
-20 -52 -18 -95 4 -116 63 -190 201 -253 106 -49 110 -51 140 -77 62 -53 15
-142 -68 -131 -43 6 -74 30 -80 62 -10 53 -14 55 -109 55 l-89 0 7 -37 c20
-111 60 -170 141 -209 46 -23 72 -29 142 -31 142 -4 227 37 275 130 45 88 24
196 -54 281 -40 43 -121 89 -202 115 -45 15 -98 62 -98 88 0 54 77 91 125 59
27 -18 58 -70 48 -80 -4 -3 38 -6 92 -6 l98 0 -7 41 c-14 85 -68 157 -146 192
-42 19 -198 36 -210 24z"/>
<path d="M611 1313 c3 -108 -4 -102 117 -105 l106 -3 1 -320 c1 -176 3 -322 5
-325 1 -3 2 -8 1 -12 0 -5 42 -8 94 -8 l95 0 0 335 0 335 110 0 110 0 0 58 c0
31 -3 67 -6 80 l-6 22 -315 0 -314 0 2 -57z"/>
<path d="M1250 1364 c0 -8 78 -164 90 -179 4 -5 32 -57 63 -115 l55 -105 -112
-195 c-63 -108 -108 -198 -103 -201 5 -4 6 -12 3 -18 -5 -8 22 -11 91 -11 l99
0 42 83 c23 45 53 101 66 125 l24 43 61 -116 c34 -64 61 -121 61 -126 0 -5 45
-9 99 -9 120 0 119 -13 11 179 -42 75 -88 157 -102 182 l-26 46 28 55 c15 30
63 117 105 193 42 77 72 141 67 143 -6 2 -8 10 -5 18 5 12 -10 14 -92 12 l-97
-3 -57 -107 c-31 -59 -59 -108 -62 -108 -4 0 -9 8 -12 18 -3 9 -28 58 -54 107
l-48 90 -98 3 c-53 1 -97 0 -97 -4z"/>
</g>
</svg>
